# xmcd CD database file generated by OrangeCD 6.0
#
# Track frame offsets:
#	150
#	20303
#	34145
#	51222
#	65985
#	82355
#	96922
#	113055
#	135915
#	151571
#	168123
#	180120
#	198521
#	220421
#	238479
#	258622
#	282219
#	293924
#	311491
#	334310
#
# Disc length: 4625 seconds
#
# Revision: 0
# Processed by: cddbd v1.5.2PL0 Copyright (c) Steve Scherf et al.
# Submitted via: OrangeCD 6.0
#
DISCID=26120f14
DTITLE=Bonnie Raitt - Bonnie Raitt 4
DYEAR=1900
DGENRE=
TTITLE0=Shadow of doubt
TTITLE1=Run like a thief
TTITLE2=Pleasin' each other
TTITLE3=Nobody's girl
TTITLE4=Monkey business
TTITLE5=Love me like a man
TTITLE6=Louise
TTITLE7=Longing in their hearts
TTITLE8=I'm blowin' away
TTITLE9=I sho do
TTITLE10=I ain't gonna let you break my heart again
TTITLE11=Hell to pay
TTITLE12=Have a heart
TTITLE13=Finest lovin' man
TTITLE14=Feels like home
TTITLE15=Don't advertize your man
TTITLE16=Darlin'
TTITLE17=Cry like a rainstorm
TTITLE18=Come to me (live)
TTITLE19=Black Velvet
EXTD=
EXTT0=
EXTT1=
EXTT2=
EXTT3=
EXTT4=
EXTT5=
EXTT6=
EXTT7=
EXTT8=
EXTT9=
EXTT10=
EXTT11=
EXTT12=
EXTT13=
EXTT14=
EXTT15=
EXTT16=
EXTT17=
EXTT18=
EXTT19=
PLAYORDER=
